# xmcd
#
# Track frame offsets: 
#        150
#        10921
#        24471
#        43458
#        61952
#        81700
#        101306
#        118349
#        139157
#        155014
#
# Disc length: 2328 seconds
#
# Revision: 2
# Processed by: cddbd v1.5.2PL0 Copyright (c) Steve Scherf et al.
# Submitted via: ExactAudioCopy v1.0b3
#
DISCID=8c09160a
DTITLE=歌莉雅 - Love Gloria
DYEAR=2017
DGENRE=
TTITLE0=沒有你什麼都沒有
TTITLE1=小珊瑚
TTITLE2=心裡日記
TTITLE3=情歌
TTITLE4=傻癡癡
TTITLE5=到底有誰能夠告訴我
TTITLE6=誰令你心痴
TTITLE7=青春頌
TTITLE8=偶遇
TTITLE9=何秉舜 - 香港八幾
EXTD=
EXTT0=
EXTT1=
EXTT2=
EXTT3=
EXTT4=
EXTT5=
EXTT6=
EXTT7=
EXTT8=
EXTT9=
PLAYORDER=
